<svg width="201" height="40" viewBox="0 0 201 40" fill="none" xmlns="http://www.w3.org/2000/svg">
<g clip-path="url(#clip0)">
<path d="M9.33879 14.7235L4.07221 19.9901L9.33879 25.2566L14.6054 19.9901L9.33879 14.7235Z" fill="#D7B399"/>
<path d="M19.9944 4.08541L14.7278 9.35199L19.9944 14.6186L25.261 9.35199L19.9944 4.08541Z" fill="#D7B399"/>
<path d="M19.9914 25.3938L14.7248 30.6604L19.9913 35.927L25.2579 30.6604L19.9914 25.3938Z" fill="#D7B399"/>
<path d="M30.647 14.7266L25.3804 19.9932L30.647 25.2597L35.9136 19.9932L30.647 14.7266Z" fill="#D7B399"/>
<path d="M28.6102 12.6866L23.3436 17.9532L25.3828 19.9923L30.6494 14.7258L28.6102 12.6866Z" fill="#D7B399"/>
<path d="M17.9547 23.3532L12.6881 28.6198L14.7273 30.659L19.9938 25.3924L17.9547 23.3532Z" fill="#D7B399"/>
<path d="M25.2587 9.35299L19.9921 14.6196L22.0313 16.6587L27.2978 11.3921L25.2587 9.35299Z" fill="#D7B399"/>
<path d="M14.6177 20.0053L9.35116 25.2719L11.3903 27.311L16.6569 22.0444L14.6177 20.0053Z" fill="#D7B399"/>
<path d="M11.3788 12.6864L9.33961 14.7256L14.6062 19.9922L16.6453 17.953L11.3788 12.6864Z" fill="#D7B399"/>
<path d="M14.727 9.34953L12.6879 11.3887L17.9544 16.6552L19.9936 14.6161L14.727 9.34953Z" fill="#D7B399"/>
<path d="M25.3796 19.9905L23.3405 22.0296L28.607 27.2962L30.6462 25.257L25.3796 19.9905Z" fill="#D7B399"/>
<path d="M22.046 23.342L20.0069 25.3812L25.2734 30.6477L27.3126 28.6086L22.046 23.342Z" fill="#D7B399"/>
<path d="M27.3029 32.6971L25.2697 30.6639L20 35.9336L14.7303 30.6639L12.6971 32.6971L20 40L27.3029 32.6971Z" fill="#D7B399"/>
<path d="M9.3361 14.7303L7.3029 12.6971L0 20L7.3029 27.3029L9.3361 25.2697L4.06639 20L9.3361 14.7303Z" fill="#D7B399"/>
<path d="M32.6971 12.6971L30.6639 14.7303L35.9336 20L30.6639 25.2697L32.6971 27.3029L40 20L32.6971 12.6971Z" fill="#D7B399"/>
<path d="M25.2697 9.3361L27.3029 7.3029L20 0L12.6971 7.3029L14.7303 9.3361L20 4.06639L25.2697 9.3361Z" fill="#D7B399"/>
</g>
<path d="M65.472 15.368H60.096V12.2H74.736V15.368H69.36V29H65.472V15.368ZM93.4359 12.2V29H89.5479V22.112H81.9159V29H78.0279V12.2H81.9159V18.824H89.5479V12.2H93.4359ZM111.619 25.88V29H98.6108V12.2H111.307V15.32H102.475V18.968H110.275V21.992H102.475V25.88H111.619ZM123.909 12.2H127.797V25.832H136.221V29H123.909V12.2ZM147.448 29.288C145.704 29.288 144.128 28.912 142.72 28.16C141.328 27.408 140.232 26.376 139.432 25.064C138.648 23.736 138.256 22.248 138.256 20.6C138.256 18.952 138.648 17.472 139.432 16.16C140.232 14.832 141.328 13.792 142.72 13.04C144.128 12.288 145.704 11.912 147.448 11.912C149.192 11.912 150.76 12.288 152.152 13.04C153.544 13.792 154.64 14.832 155.44 16.16C156.24 17.472 156.64 18.952 156.64 20.6C156.64 22.248 156.24 23.736 155.44 25.064C154.64 26.376 153.544 27.408 152.152 28.16C150.76 28.912 149.192 29.288 147.448 29.288ZM147.448 25.976C148.44 25.976 149.336 25.752 150.136 25.304C150.936 24.84 151.56 24.2 152.008 23.384C152.472 22.568 152.704 21.64 152.704 20.6C152.704 19.56 152.472 18.632 152.008 17.816C151.56 17 150.936 16.368 150.136 15.92C149.336 15.456 148.44 15.224 147.448 15.224C146.456 15.224 145.56 15.456 144.76 15.92C143.96 16.368 143.328 17 142.864 17.816C142.416 18.632 142.192 19.56 142.192 20.6C142.192 21.64 142.416 22.568 142.864 23.384C143.328 24.2 143.96 24.84 144.76 25.304C145.56 25.752 146.456 25.976 147.448 25.976ZM168.898 29.288C167.154 29.288 165.578 28.912 164.17 28.16C162.778 27.408 161.682 26.376 160.882 25.064C160.098 23.736 159.706 22.248 159.706 20.6C159.706 18.952 160.098 17.472 160.882 16.16C161.682 14.832 162.778 13.792 164.17 13.04C165.578 12.288 167.154 11.912 168.898 11.912C170.642 11.912 172.21 12.288 173.602 13.04C174.994 13.792 176.09 14.832 176.89 16.16C177.69 17.472 178.09 18.952 178.09 20.6C178.09 22.248 177.69 23.736 176.89 25.064C176.09 26.376 174.994 27.408 173.602 28.16C172.21 28.912 170.642 29.288 168.898 29.288ZM168.898 25.976C169.89 25.976 170.786 25.752 171.586 25.304C172.386 24.84 173.01 24.2 173.458 23.384C173.922 22.568 174.154 21.64 174.154 20.6C174.154 19.56 173.922 18.632 173.458 17.816C173.01 17 172.386 16.368 171.586 15.92C170.786 15.456 169.89 15.224 168.898 15.224C167.906 15.224 167.01 15.456 166.21 15.92C165.41 16.368 164.778 17 164.314 17.816C163.866 18.632 163.642 19.56 163.642 20.6C163.642 21.64 163.866 22.568 164.314 23.384C164.778 24.2 165.41 24.84 166.21 25.304C167.01 25.752 167.906 25.976 168.898 25.976ZM189.484 12.2C190.972 12.2 192.26 12.448 193.348 12.944C194.452 13.44 195.3 14.144 195.892 15.056C196.484 15.968 196.78 17.048 196.78 18.296C196.78 19.528 196.484 20.608 195.892 21.536C195.3 22.448 194.452 23.152 193.348 23.648C192.26 24.128 190.972 24.368 189.484 24.368H186.1V29H182.212V12.2H189.484ZM189.268 21.2C190.436 21.2 191.324 20.952 191.932 20.456C192.54 19.944 192.844 19.224 192.844 18.296C192.844 17.352 192.54 16.632 191.932 16.136C191.324 15.624 190.436 15.368 189.268 15.368H186.1V21.2H189.268Z" fill="#212121"/>
<defs>
<clipPath id="clip0">
<rect width="40" height="40" fill="white"/>
</clipPath>
</defs>
</svg>
